
<svg xmlns="http://www.w3.org/2000/svg" xmlns:xlink="http://www.w3.org/1999/xlink" width="204.028" height="93.626" viewBox="0 0 204.028 93.626">
    <defs>
        <linearGradient id="linear-gradient" x1="0.425" y1="0.235" x2="1.424" y2="2.133" gradientUnits="objectBoundingBox">
            <stop offset="0.001" stop-color="#ff3067"/>
            <stop offset="1" stop-color="#a5009f"/>
        </linearGradient>
        <linearGradient id="linear-gradient-2" x1="-0.169" y1="-1.173" x2="1.055" y2="1.568" xlink:href="#linear-gradient"/>
        <linearGradient id="linear-gradient-3" x1="-0.072" y1="-0.727" x2="1.211" y2="2.012" xlink:href="#linear-gradient"/>
        <linearGradient id="linear-gradient-4" x1="-0.863" y1="-2.417" x2="0.42" y2="0.323" xlink:href="#linear-gradient"/>
        <linearGradient id="linear-gradient-5" x1="-0.465" y1="-2.206" x2="0.769" y2="0.616" xlink:href="#linear-gradient"/>
        <linearGradient id="linear-gradient-6" x1="-0.779" y1="-1.002" x2="1.142" y2="1.174" xlink:href="#linear-gradient"/>
        <linearGradient id="linear-gradient-7" x1="-0.347" y1="-0.452" x2="2.173" y2="2.38" xlink:href="#linear-gradient"/>
        <linearGradient id="linear-gradient-8" x1="-4.294" y1="-1.904" x2="1.537" y2="1.02" xlink:href="#linear-gradient"/>
        <linearGradient id="linear-gradient-9" x1="-2.308" y1="-5.738" x2="2.542" y2="5.035" xlink:href="#linear-gradient"/>
        <linearGradient id="linear-gradient-10" x1="0.5" x2="0.5" y2="1" gradientUnits="objectBoundingBox">
            <stop offset="0.001" stop-color="#8f006d"/>
            <stop offset="1" stop-color="#4c00b3"/>
        </linearGradient>
        <linearGradient id="linear-gradient-11" x1="0.5" x2="0.5" y2="1" gradientUnits="objectBoundingBox">
            <stop offset="0.001" stop-color="#c8006d"/>
            <stop offset="1" stop-color="#8200b3"/>
        </linearGradient>
        <linearGradient id="linear-gradient-12" x1="0.5" x2="0.5" y2="1" gradientUnits="objectBoundingBox">
            <stop offset="0.001" stop-color="#c8006d"/>
            <stop offset="1" stop-color="#c5009f"/>
        </linearGradient>
        <linearGradient id="linear-gradient-13" x1="0.5" y1="-0.078" x2="0.5" y2="1.101" gradientUnits="objectBoundingBox">
            <stop offset="0.001" stop-color="#ff3067"/>
            <stop offset="1" stop-color="#ff009f"/>
        </linearGradient>
    </defs>
    <g id="AdCreative" transform="translate(-271 -161.25)">
        <g id="Group_4" data-name="Group 4" transform="translate(271 225.347)">
            <g id="Group_1" data-name="Group 1" transform="translate(0)">
                <path id="Path_2_8_" d="M1586.18,350.1v28.934h-3.973V376.49l-.124-.085a1.1,1.1,0,0,1-.116.232,7.839,7.839,0,0,1-12.755-.618,10.228,10.228,0,0,1,.943-12.685,7.763,7.763,0,0,1,11.495.162c.162.178.325.356.541.6V350.1Zm-9.307,25.517a5.373,5.373,0,1,0-5.419-5.295A5.389,5.389,0,0,0,1576.873,375.617Z" transform="translate(-1543.016 -350.1)" fill="#3b2a82"/>
                <path id="Path_3_8_" d="M1263.767,381.8c4.12,8.859,8.209,17.656,12.314,26.506h-2.327c-.75,0-1.492-.008-2.242.008a.366.366,0,0,1-.4-.263c-.564-1.252-1.151-2.5-1.716-3.757a.456.456,0,0,0-.487-.309q-5.16.012-10.32,0a.485.485,0,0,0-.518.332q-.835,1.867-1.708,3.71c-.054.116-.2.263-.3.263-1.531.015-3.061.015-4.661.015C1255.526,399.463,1259.631,390.674,1263.767,381.8Zm3.424,17.826-3.424-7.459-3.463,7.46Z" transform="translate(-1251.399 -379.35)" fill="#3b2a82"/>
            </g>
            <g id="Group_2" data-name="Group 2" transform="translate(45.629 2.449)">
                <path id="Path_4_8_" d="M1864.672,385.687c-1.013,1.051-2.01,2.094-3.007,3.131a9.163,9.163,0,0,0-13.3,12.6,8.836,8.836,0,0,0,6.571,3.053,8.98,8.98,0,0,0,6.725-2.659l3.022,3.123a13.515,13.515,0,1,1-.015-19.248Z" transform="translate(-1841.681 -381.782)" fill="url(#linear-gradient)"/>
                <path id="Path_5_8_" d="M2544.841,507.533h-3.966v-2.543l-.077-.039c-.085.1-.17.193-.255.294a7.7,7.7,0,0,1-6.655,2.845,7.54,7.54,0,0,1-5.45-2.868,9.9,9.9,0,0,1-1.554-10.374,8.31,8.31,0,0,1,4.855-4.955,7.733,7.733,0,0,1,8.6,2.126c.155.17.309.34.526.587v-2.652h3.989v17.579Zm-9.415-3.417a5.373,5.373,0,1,0-5.311-5.481,5.384,5.384,0,0,0,5.311,5.481Z" transform="translate(-2473.174 -481.048)" fill="url(#linear-gradient-2)"/>
                <path id="Path_7_8_" d="M2287.992,500.438h-13.419c.085.193.132.348.209.487a5.9,5.9,0,0,0,4.368,3.053,6.833,6.833,0,0,0,6.13-1.747l2.767,2.884a9.939,9.939,0,0,1-2.783,1.933,11,11,0,0,1-12.213-1.848,8.7,8.7,0,0,1-2.512-8.866,8.834,8.834,0,0,1,16.775-1.53A9.851,9.851,0,0,1,2287.992,500.438Zm-4.174-3.432a4.9,4.9,0,0,0-4.785-3.641c-2.11.1-4.36,1.925-4.476,3.641Z" transform="translate(-2237.08 -481.042)" fill="url(#linear-gradient-3)"/>
                <path id="Path_8_8_" d="M3264.7,500.3c1.336,3.749,7.242,5.1,10.667,1.8.912.951,1.824,1.909,2.767,2.884a9.4,9.4,0,0,1-2.3,1.677,11.04,11.04,0,0,1-13.033-1.925,9.288,9.288,0,0,1,4.205-15.22,8.874,8.874,0,0,1,10.389,5.133,9.721,9.721,0,0,1,.7,5.481c-.008.046-.023.093-.039.17Zm-.071-3.432h9.284a4.782,4.782,0,0,0-9.284,0Z" transform="translate(-3150.65 -480.914)" fill="url(#linear-gradient-4)"/>
                <path id="Path_9_8_" d="M3055.114,496.6c-3.115,6.1-6.2,12.113-9.308,18.2-3.107-6.076-6.192-12.105-9.307-18.2h.9c1.029,0,2.064.015,3.092-.008a.675.675,0,0,1,.734.441c1.438,2.837,2.9,5.659,4.352,8.48.062.124.131.24.224.41.085-.162.155-.278.217-.4l4.406-8.58a.536.536,0,0,1,.557-.348C3052.339,496.61,3053.684,496.6,3055.114,496.6Z" transform="translate(-2944.139 -487.719)" fill="url(#linear-gradient-5)"/>
                <path id="Path_10_8_" d="M2799.107,442.514h-4V428.933h-3.8v-4.012h3.8v-1.933c0-.6-.008-1.214.008-1.817a.438.438,0,0,1,.162-.34c1.245-.642,2.5-1.268,3.811-1.932v6.006h4.19v4H2799.1Z" transform="translate(-2717.894 -416.03)" fill="url(#linear-gradient-6)"/>
                <path id="Path_11_8_" d="M2165.722,493.676a4.249,4.249,0,0,0-3.309.626,4.19,4.19,0,0,0-1.848,3.664v9.771H2156.6v-17.57h3.942v1.793l.085.062a7.228,7.228,0,0,1,2.273-1.77,6.156,6.156,0,0,1,2.822-.657Z" transform="translate(-2132.257 -481.26)" fill="url(#linear-gradient-7)"/>
                <path id="Path_12_8_" d="M2968.6,497h3.942V514.57H2968.6Z" transform="translate(-2881.489 -488.094)" fill="url(#linear-gradient-8)"/>
                <path id="Path_15_8_" d="M2968.236,388.178a2.369,2.369,0,1,1-2.334-2.381h.008A2.361,2.361,0,0,1,2968.236,388.178Z" transform="translate(-2876.781 -385.486)" fill="url(#linear-gradient-9)"/>
            </g>
            <g id="Group_3" data-name="Group 3" transform="translate(175.558 3.973)">
                <path id="Path_40_8_" d="M3585.6,499.138a23.4,23.4,0,0,1-1.917,2.4,8.6,8.6,0,0,1-13.334-1.376,9.728,9.728,0,0,1,.82-11.935,8.673,8.673,0,0,1,14.162,1.793,1,1,0,0,0,.247.325v-4.422h1.855V503.49h-1.824v-4.352Zm-7.537,3.084a7.517,7.517,0,1,0-7.521-7.514,7.517,7.517,0,0,0,7.521,7.514Z" transform="translate(-3565.115 -478.862)" fill="#3b2a82"/>
                <path id="Path_45_8_" d="M3859.415,510.5h-1.569c-.078,0-.147-.008-.248-.016V492.9h1.809v17.6Z" transform="translate(-3831.695 -485.835)" fill="#3b2a82"/>
                <path id="Path_46_8_" d="M3524.131,688.859a1.672,1.672,0,0,1-1.631-1.623,1.635,1.635,0,1,1,3.27.016A1.654,1.654,0,0,1,3524.131,688.859Z" transform="translate(-3522.5 -663.636)" fill="#3b2a82"/>
                <path id="Path_48_8_" d="M3850.128,401.5a1.621,1.621,0,1,1-1.631,1.615A1.628,1.628,0,0,1,3850.128,401.5Z" transform="translate(-3823.297 -401.5)" fill="#3b2a82"/>
            </g>
        </g>
        <g id="Group_4851" data-name="Group 4851" transform="translate(342.833 161.25)">
            <g id="Group_4851-2" data-name="Group 4851" transform="translate(0 0)">
                <path id="Path_3567" data-name="Path 3567" d="M334.769,539.356,309.2,552.815a7.689,7.689,0,0,1-7.164,0l-25.565-13.459a2.16,2.16,0,0,1,.058-3.853l29.089-14.2,29.089,14.2a2.16,2.16,0,0,1,.058,3.853Z" transform="translate(-275.321 -496.147)" fill="url(#linear-gradient-10)"/>
                <path id="Path_3568" data-name="Path 3568" d="M334.773,426.556l-25.565,13.459a7.689,7.689,0,0,1-7.164,0l-25.565-13.459a2.16,2.16,0,0,1,.058-3.852l29.089-14.2,29.089,14.2a2.16,2.16,0,0,1,.058,3.852Z" transform="translate(-275.325 -392.054)" fill="url(#linear-gradient-11)"/>
                <path id="Path_3569" data-name="Path 3569" d="M334.774,314.381l-25.565,13.459a7.689,7.689,0,0,1-7.164,0L276.48,314.381a2.16,2.16,0,0,1,.058-3.852l29.089-14.2,29.089,14.2a2.16,2.16,0,0,1,.058,3.852Z" transform="translate(-275.326 -288.539)" fill="url(#linear-gradient-12)"/>
                <path id="Path_3570" data-name="Path 3570" d="M334.769,212.648,309.2,226.107a7.69,7.69,0,0,1-7.164,0l-25.565-13.459a2.16,2.16,0,0,1,.058-3.853l25.715-12.556a7.689,7.689,0,0,1,6.748,0L334.71,208.8a2.16,2.16,0,0,1,.058,3.853Z" transform="translate(-275.321 -195.459)" fill="url(#linear-gradient-13)"/>
            </g>
        </g>
    </g>
</svg>

